<svg width="51" height="82" viewBox="0 0 51 82" fill="none" xmlns="http://www.w3.org/2000/svg">
<path d="M29.6111 16.4056C30.5294 16.951 30.6707 17.2867 30.3881 18.3496C29.1873 23.0629 27.9864 27.7902 26.7856 32.5035C26.7715 32.5454 26.7715 32.5874 26.7574 32.6713C26.9128 32.6713 27.054 32.6853 27.1953 32.6853C30.3175 32.6853 33.4396 32.6853 36.5477 32.6853C37.1128 32.6853 37.6072 32.8112 37.9039 33.3287C38.2006 33.8461 38.0593 34.3217 37.7485 34.8112C32.7898 42.5874 27.8452 50.3776 22.9006 58.1678C22.5756 58.6853 22.1659 59.007 21.5302 58.9371C20.7673 58.8392 20.3011 58.1259 20.4989 57.3426C21.0781 55.0489 21.6574 52.7552 22.2366 50.4615C22.8723 47.944 23.5222 45.4266 24.1579 42.8951C24.172 42.8252 24.1862 42.7692 24.2003 42.6573C24.0308 42.6573 23.8754 42.6573 23.72 42.6573C20.5978 42.6573 17.4756 42.6573 14.3676 42.6573C13.8166 42.6573 13.3363 42.5315 13.0538 42.028C12.743 41.5105 12.8842 41.035 13.195 40.5454C18.1538 32.7692 23.0984 24.979 28.0571 17.2028C28.2549 16.8811 28.6222 16.6573 28.9189 16.3916C29.1731 16.4056 29.3851 16.4056 29.6111 16.4056Z" fill="#3D3D3D"/>
<path d="M8.34931 82C6.82355 82 5.39668 81.0769 4.15346 80.2657C1.21496 78.3357 0 75.4406 0 71.972C0.0141274 57.3986 0.0141274 42.8392 0.0141274 28.2657C0.0141274 24.2657 0 20.2657 0.0141274 16.2517C0.0282548 10.3357 4.09695 6.30769 10.0729 6.29371C10.9346 6.29371 11.7823 6.29371 12.7429 6.29371C12.7429 5.34266 12.7429 4.47552 12.7429 3.60839C12.7571 1.25874 14.0285 0 16.4019 0C22.4626 0 28.5374 0 34.5981 0C36.9715 0 38.2429 1.25874 38.2571 3.60839C38.2571 4.46154 38.2571 5.31469 38.2571 6.29371C39.1188 6.29371 39.9524 6.22378 40.7576 6.30769C42.015 6.43357 43.3147 6.47552 44.4873 6.85315C48.5418 8.15385 50.9576 11.6923 50.9717 16.1818C50.9859 19.7622 50.9717 23.3287 50.9717 26.9091C50.9717 41.9021 50.9576 56.9091 50.9859 71.9021C50.9859 75.3986 49.7992 78.3217 46.8324 80.2657C45.5892 81.0769 44.4873 82 42.6366 82C31.2216 82 19.7784 82 8.34931 82ZM19.1285 12.6294C15.964 12.6294 12.9548 12.6294 9.93158 12.6294C7.64294 12.6294 6.3856 13.8741 6.3856 16.1399C6.3856 34.8252 6.3856 53.4965 6.3856 72.1818C6.3856 74.3916 7.64294 75.6923 9.87507 75.6923C20.287 75.7063 30.6848 75.7063 41.0967 75.6923C43.3288 75.6923 44.6003 74.4056 44.6003 72.1818C44.6003 53.4685 44.6003 34.7692 44.6003 16.0559C44.6003 13.8881 43.3288 12.6294 41.1391 12.6154C38.356 12.6014 35.587 12.6154 32.8039 12.6154C32.5213 12.6154 32.2247 12.6154 31.8291 12.6154C31.8291 10.4615 31.8291 8.40559 31.8291 6.33566C27.5485 6.33566 23.3809 6.33566 19.1285 6.33566C19.1285 8.44755 19.1285 10.4895 19.1285 12.6294Z" fill="#3D3D3D"/>
<path d="M25.4999 63.0909C29.5969 63.0909 33.6938 63.0909 37.7908 63.0909C40.1783 63.0909 41.4074 64.3077 41.4215 66.6993C41.4215 67.6364 41.4498 68.5734 41.3933 69.4965C41.2803 71.3007 40.0088 72.4895 38.1864 72.5455C37.0844 72.5734 35.9825 72.5595 34.8664 72.5595C27.7038 72.5595 20.5271 72.5595 13.3645 72.5595C10.765 72.5595 9.57832 71.3706 9.57832 68.7832C9.57832 67.9301 9.55006 67.0769 9.59245 66.2238C9.69134 64.3357 10.9628 63.1189 12.8841 63.1189C17.0941 63.0769 21.3041 63.0909 25.4999 63.0909Z" fill="#3D3D3D"/>
</svg>
