<svg width="63" height="16" viewBox="0 0 63 16" fill="none" xmlns="http://www.w3.org/2000/svg">
<path d="M51.8399 12.6445C51.8399 13.5825 51.8399 14.4072 51.8399 15.3129C51.4879 15.3129 51.1999 15.3129 50.9279 15.3129C44.7999 15.3129 38.6879 15.3129 32.5599 15.3129C30.6559 15.3129 30.1439 14.7954 30.1439 12.8709C30.1439 11.852 30.1439 10.8332 30.1439 9.71734C20.0799 9.71734 10.0639 9.71734 -9.82136e-05 9.71734C-9.82136e-05 8.56912 -9.82136e-05 7.50177 -9.82136e-05 6.33738C10.0159 6.33738 20.0319 6.33738 30.1439 6.33738C30.1439 5.15682 30.1439 4.05712 30.1439 2.9736C30.1439 1.27553 30.7039 0.693337 32.3839 0.693337C38.6079 0.693337 44.8319 0.693337 51.0719 0.693337C51.3119 0.693337 51.5359 0.725681 51.8399 0.741853C51.8399 1.64749 51.8399 2.52078 51.8399 3.4911C52.1759 3.50727 52.4639 3.52344 52.7359 3.52344C55.6319 3.52344 58.5439 3.52344 61.4399 3.52344C62.6719 3.52344 62.8799 3.73368 62.8799 4.96276C62.8799 7.00043 62.8799 9.03811 62.8799 11.0758C62.8799 12.4342 62.7039 12.6121 61.3759 12.6121C58.5279 12.6121 55.6799 12.6121 52.8319 12.6121C52.5279 12.6445 52.2399 12.6445 51.8399 12.6445ZM61.1679 5.30237C58.0159 5.30237 54.9599 5.30237 51.9039 5.30237C51.9039 7.1945 51.9039 9.03811 51.9039 10.8656C55.0239 10.8656 58.0799 10.8656 61.1679 10.8656C61.1679 8.9896 61.1679 7.17833 61.1679 5.30237Z" fill="#3D3D3D"/>
<path d="M58.48 9.73352C57.936 9.73352 57.44 9.73352 56.896 9.73352C56.896 8.61765 56.896 7.55029 56.896 6.43442C57.44 6.43442 57.936 6.43442 58.48 6.43442C58.48 7.51795 58.48 8.60148 58.48 9.73352Z" fill="#3D3D3D"/>
</svg>
